<svg width="24" height="24" viewBox="0 0 24 24" fill="none" xmlns="http://www.w3.org/2000/svg">
<path d="M12 22C17.5228 22 22 17.5228 22 12C22 6.47715 17.5228 2 12 2C6.47715 2 2 6.47715 2 12C2 17.5228 6.47715 22 12 22Z" fill="black"/>
<path d="M11.9889 2C10.0133 2 8.08204 2.58584 6.43937 3.68343C4.7967 4.78103 3.5164 6.34108 2.76036 8.16631C2.00433 9.99155 1.80651 12 2.19194 13.9376C2.57736 15.8753 3.52871 17.6551 4.92569 19.0521C6.32266 20.4491 8.10251 21.4004 10.0402 21.7859C11.9778 22.1713 13.9863 21.9735 15.8115 21.2174C17.6367 20.4614 19.1968 19.1811 20.2944 17.5384C21.392 15.8958 21.9778 13.9645 21.9778 11.9889C21.9778 9.33968 20.9254 6.79896 19.0521 4.92568C17.1788 3.0524 14.6381 2 11.9889 2ZM16.6837 9.16981L11.7558 16.0067C11.609 16.2048 11.3948 16.3424 11.1536 16.3935C10.9123 16.4447 10.6607 16.4057 10.4462 16.2841L7.61599 14.6304C7.38639 14.4921 7.22115 14.2682 7.15663 14.008C7.0921 13.7478 7.13358 13.4727 7.27192 13.2431C7.41027 13.0135 7.63416 12.8482 7.89434 12.7837C8.15452 12.7192 8.42967 12.7607 8.65927 12.899L10.6681 14.0977L15.1077 8.00444C15.2724 7.83937 15.4898 7.73717 15.722 7.71553C15.9542 7.6939 16.1867 7.75421 16.3791 7.886C16.5715 8.0178 16.7117 8.21277 16.7755 8.43711C16.8392 8.66146 16.8225 8.90104 16.7281 9.11432L16.6837 9.16981Z" fill="white"/>
</svg>
