<svg width="80" height="80" viewBox="0 0 80 80" fill="none" xmlns="http://www.w3.org/2000/svg">
<path d="M57.5 10L53.8883 22.8167L46.6667 26.5883L53.8883 30.3583L57.5 41.6667L61.1117 30.3567L68.3333 26.5867L61.1117 22.8183L57.5 10ZM33.3333 20L31.6667 26.6667L26.6667 28.3333L31.6667 30L33.3333 36.6667L35 30L40 28.3333L35 26.6667L33.3333 20ZM10 50C10 49.558 10.1756 49.134 10.4882 48.8215C10.8007 48.5089 11.2246 48.3333 11.6667 48.3333H16.6667C17.1087 48.3333 17.5326 48.5089 17.8452 48.8215C18.1577 49.134 18.3333 49.558 18.3333 50V68.3267C18.3333 68.7687 18.1577 69.1926 17.8452 69.5052C17.5326 69.8177 17.1087 69.9933 16.6667 69.9933H11.6667C11.2246 69.9933 10.8007 69.8177 10.4882 69.5052C10.1756 69.1926 10 68.7687 10 68.3267V50ZM29.5083 48.6483C31.0617 47.94 34.8583 48.6483 34.8583 48.6483L45.9017 51.125C45.9017 51.125 48.6633 52.01 51.2517 52.01C53.84 52.01 52.2917 55.5533 50.56 56.79C48.8283 58.0267 47.57 57.96 47.57 57.96L38.6533 57.8517C38.6533 57.8517 46.42 59.2683 49.3533 59.445C50.8383 59.535 53.3867 58.4883 56.2367 57.32C59.0117 56.18 62.07 54.925 64.71 54.4883C70.06 53.605 70.9233 58.3833 69.1967 60.1533C67.4717 61.9233 53.6667 68.6483 51.2517 69.5333C49.3583 70.2267 47.07 69.9967 44.4883 69.7367C43.7733 69.665 43.035 69.59 42.2783 69.5333C39.2617 69.305 36.9583 68.5717 34.6783 67.8467C32.2317 67.07 29.8133 66.3017 26.575 66.17C25.4883 66.1267 22.945 66.2617 21.6667 66.3367V51.5667C23.8767 50.78 28.3517 49.175 29.5083 48.6483Z" fill="white"/>
</svg>