<svg width="80" height="80" viewBox="0 0 80 80" fill="none" xmlns="http://www.w3.org/2000/svg">
<path d="M64.5455 28.8824C60.4545 28.8824 58.2727 33.3294 59.3636 36.8235L49.5455 48.2588C48.7273 47.9412 47.6364 47.9412 46.8182 48.2588L39.7273 40C40.8182 36.5059 38.6364 32.0588 34.5455 32.0588C30.7273 32.0588 28.2727 36.5059 29.3636 40L16.8182 54.2941C13.8182 53.3412 10 55.8824 10 60.6471C10 64.1412 12.4545 67 15.4545 67C19.2727 67 21.7273 62.5529 20.6364 59.0588L32.9091 44.4471C33.7273 44.7647 34.8182 44.7647 35.6364 44.4471L42.7273 52.7059C41.9091 55.8824 44.0909 60.6471 48.1818 60.6471C52.2727 60.6471 54.4545 56.2 53.3636 52.7059L63.1818 41.2706C66.1818 42.2235 70 39.6824 70 35.2353C70 31.7412 67.5455 28.8824 64.5455 28.8824ZM48.1818 32.0588L50.6364 25.3882L56.3636 22.5294L50.6364 19.6706L48.1818 13L45.7273 19.6706L40 22.5294L45.7273 25.3882L48.1818 32.0588ZM16.8182 38.4118L18.1818 32.0588L23.6364 30.4706L18.1818 28.8824L16.8182 22.5294L15.4545 28.8824L10 30.4706L15.4545 32.0588L16.8182 38.4118Z" fill="#085764"/>
</svg>