<svg width="80" height="80" viewBox="0 0 80 80" fill="none" xmlns="http://www.w3.org/2000/svg">
<path d="M27.9464 34.8167L21.3464 31.8167L23.0464 28.7833L29.6464 31.8L27.9464 34.8V34.8167ZM40.7331 29.8333C41.2131 29.8333 41.5998 29.4133 41.5998 28.9133C41.5998 28.4133 41.2131 27.9967 40.7331 27.9967C40.2464 27.9967 39.8664 28.4133 39.8664 28.9133C39.8664 29.4133 40.2464 29.8333 40.7331 29.8333ZM38.3664 29.2967C38.3972 29.1996 38.4129 29.0985 38.4131 28.9967C38.4131 28.4967 38.0298 28.0767 37.5464 28.0767C37.0798 28.0767 36.6798 28.4933 36.6798 28.9933C36.6798 29.4933 37.0798 29.91 37.5464 29.91C37.6549 29.9051 37.7619 29.8826 37.8631 29.8433L38.2964 30.31C38.2734 30.397 38.2621 30.4867 38.2631 30.5767C38.2631 31.0767 38.6464 31.4933 39.1298 31.4933C39.5964 31.4933 39.9798 31.0767 39.9798 30.5767C39.9798 30.0767 39.5998 29.6667 39.1331 29.6667C39.0185 29.6648 38.9048 29.6875 38.7998 29.7333L38.3664 29.2967ZM36.8464 30.4767C36.8464 30.9767 36.4464 31.3933 35.9798 31.3933H35.8464L35.2631 32.4267C35.3579 32.5762 35.4083 32.7496 35.4083 32.9267C35.4083 33.1037 35.3579 33.2771 35.2631 33.4267L35.5631 33.8933C35.6977 33.8557 35.8392 33.8503 35.9764 33.8773C36.1135 33.9044 36.2423 33.9632 36.3526 34.0491C36.4628 34.1351 36.5513 34.2456 36.611 34.372C36.6708 34.4984 36.7 34.637 36.6964 34.7767C36.6964 35.2767 36.2964 35.6767 35.8298 35.6767C35.7136 35.6749 35.599 35.6502 35.4924 35.604C35.3859 35.5577 35.2895 35.4908 35.209 35.4072C35.1284 35.3235 35.0652 35.2247 35.023 35.1165C34.9808 35.0083 34.9604 34.8928 34.9631 34.7767C34.9531 34.6561 34.9762 34.5351 35.0298 34.4267L34.6464 33.8433H34.5464C34.4303 33.8416 34.3156 33.8169 34.2091 33.7706C34.1025 33.7244 34.0062 33.6575 33.9256 33.5738C33.8451 33.4902 33.7819 33.3914 33.7397 33.2832C33.6975 33.175 33.6771 33.0595 33.6798 32.9433C33.6798 32.4433 34.0631 32.0267 34.5464 32.0267H34.6298L35.2298 30.9433C35.1535 30.7996 35.1134 30.6394 35.1131 30.4767C35.1131 29.9767 35.4964 29.56 35.9798 29.56C36.4464 29.56 36.8464 29.9767 36.8464 30.4767ZM33.0131 31.6433C33.4964 31.6433 33.8798 31.2433 33.8798 30.7433C33.8798 30.2433 33.4964 29.8267 33.0131 29.8267C32.5298 29.8267 32.1464 30.2267 32.1464 30.7433C32.1464 30.86 32.1798 30.9767 32.2131 31.0767L31.5131 32.06C31.4369 32.0397 31.3586 32.0285 31.2798 32.0267C30.8131 32.0267 30.4298 32.4267 30.4298 32.9433C30.4298 33.4433 30.8131 33.86 31.2798 33.86C31.7798 33.86 32.1464 33.4433 32.1464 32.9433C32.1495 32.8124 32.1269 32.6822 32.0798 32.56L32.7464 31.61C32.8464 31.6433 32.9131 31.66 33.0131 31.66V31.6433ZM38.4131 32.5767C38.4131 33.0767 38.0298 33.4933 37.5464 33.4933C37.0798 33.4933 36.6798 33.0767 36.6798 32.5767C36.6798 32.0767 37.0798 31.66 37.5464 31.66C38.0298 31.66 38.4131 32.06 38.4131 32.5767ZM38.2464 42.5767C38.2524 42.354 38.1756 42.1371 38.031 41.9678C37.8863 41.7984 37.6839 41.6888 37.4631 41.66C36.9809 41.3235 36.6327 40.8278 36.4798 40.26C36.5234 40.1314 36.5404 39.9953 36.5298 39.86C36.6631 39.0767 37.1964 38.5433 37.5798 38.3133C37.9798 38.2267 38.2464 37.8633 38.2464 37.4133C38.2464 36.9133 37.8798 36.5133 37.4131 36.5133C36.9131 36.5133 36.5298 36.9133 36.5298 37.4133L36.5464 37.58C36.3798 38.4133 35.9798 38.8267 35.6464 39.0267C35.1798 39.0267 34.8131 39.4433 34.8131 39.9433C34.8131 40.3767 35.0964 40.7433 35.4798 40.8433C35.8964 41.0933 36.4798 41.5933 36.5964 42.2433C36.5553 42.3498 36.5328 42.4626 36.5298 42.5767C36.5298 43.0767 36.9131 43.4767 37.3964 43.4767C37.8798 43.4767 38.2631 43.0767 38.2631 42.5767H38.2464ZM30.5964 39.9433C30.5964 40.4433 30.2131 40.86 29.7298 40.86C29.2631 40.86 28.8798 40.4433 28.8798 39.9433C28.8798 39.4433 29.2631 39.0267 29.7298 39.0267C30.2131 39.0267 30.5964 39.4433 30.5964 39.9433ZM31.8298 42.6767C31.9173 42.5246 31.9633 42.3521 31.9631 42.1767C31.9631 41.6767 31.5631 41.2767 31.0964 41.2767C30.6131 41.2767 30.2298 41.6767 30.2298 42.1933C30.2298 42.6933 30.6131 43.0933 31.0964 43.0933H31.1964L32.0631 44.5267C31.9977 44.6618 31.9635 44.8099 31.9631 44.96C31.9631 45.46 32.3464 45.8767 32.8131 45.8767C33.2964 45.8767 33.6798 45.4767 33.6798 44.96C33.6798 44.46 33.2964 44.06 32.8131 44.06H32.6664L31.8298 42.6767ZM30.7631 44.61C30.7631 45.11 30.3798 45.5267 29.8964 45.5267C29.4298 45.5267 29.0298 45.1267 29.0298 44.61C29.0298 44.11 29.4298 43.6933 29.8964 43.6933C30.3798 43.6933 30.7631 44.1133 30.7631 44.61ZM28.8798 43.11C29.3464 43.11 29.7298 42.6933 29.7298 42.1933C29.7298 41.6933 29.3464 41.2767 28.8798 41.2767C28.3964 41.2767 28.0131 41.6767 28.0131 42.1933C28.0131 42.6933 28.3964 43.0933 28.8798 43.0933V43.11ZM30.7631 35.1767C30.7631 35.3433 30.7131 35.51 30.6464 35.6433L31.2631 36.51H31.4631L32.0631 35.6267C31.9952 35.4865 31.9609 35.3324 31.9631 35.1767C31.9631 34.6767 32.3464 34.26 32.8131 34.26C33.2964 34.26 33.6798 34.6767 33.6798 35.1767C33.6798 35.6767 33.2964 36.0933 32.8131 36.0933H32.6664L32.0498 36.9933C32.1164 37.1267 32.1498 37.26 32.1498 37.4267C32.1498 37.9267 31.7664 38.3433 31.2831 38.3433C30.8164 38.3433 30.4331 37.93 30.4331 37.4267C30.4303 37.2253 30.4884 37.0278 30.5998 36.86L30.0331 36.0767L29.9331 36.0933L29.4831 37.06C29.6498 37.2267 29.7331 37.46 29.7331 37.71C29.7331 38.21 29.3498 38.6267 28.8831 38.6267C28.3998 38.6267 28.0164 38.21 28.0164 37.71C28.0164 37.2267 28.3498 36.8433 28.7998 36.7933L29.2664 35.7933C29.1212 35.6201 29.0389 35.4027 29.0331 35.1767C29.0331 34.6767 29.4331 34.26 29.8998 34.26C30.3831 34.26 30.7631 34.6767 30.7631 35.1767ZM34.0998 38.3433C34.5831 38.3433 34.9664 37.93 34.9664 37.41C34.9664 36.91 34.5831 36.51 34.0998 36.51C33.6331 36.51 33.2331 36.91 33.2331 37.41C33.2331 37.91 33.6331 38.3267 34.0998 38.3267V38.3433ZM35.6664 46.01C36.1664 46.01 36.5331 45.61 36.5331 45.0967C36.5331 44.5967 36.1498 44.1767 35.6664 44.1767C35.1998 44.1767 34.8164 44.5933 34.8164 45.0967C34.8164 45.5967 35.1998 46.01 35.6664 46.01ZM38.3664 47.41C38.3664 47.91 37.9831 48.3267 37.4998 48.3267C37.4028 48.3308 37.3061 48.3138 37.2164 48.2767L36.8331 48.9433C36.865 49.0402 36.8818 49.1414 36.8831 49.2433C36.8831 49.7433 36.4998 50.16 36.0164 50.16C35.5498 50.16 35.1664 49.76 35.1664 49.2433V49.0767L34.3998 48.1933C34.2783 48.2422 34.1466 48.2605 34.0164 48.2467L33.8498 48.6467C33.9831 48.8133 34.0498 49.0133 34.0498 49.2467C34.0498 49.7467 33.6664 50.16 33.1998 50.16C32.7164 50.16 32.3331 49.76 32.3331 49.2433C32.3331 48.7433 32.6998 48.3433 33.1664 48.3267L33.3831 47.8433C33.2897 47.6929 33.2379 47.5203 33.2331 47.3433C33.2331 46.8433 33.6331 46.4267 34.0998 46.4267C34.5831 46.4267 34.9664 46.8267 34.9664 47.3433L34.9164 47.6433L35.6164 48.4433C35.7169 48.3867 35.828 48.3515 35.9428 48.34C36.0575 48.3286 36.1734 48.341 36.2831 48.3767L36.6831 47.71C36.6512 47.6131 36.6344 47.512 36.6331 47.41C36.6331 46.91 37.0331 46.4967 37.4998 46.4967C37.9831 46.4967 38.3664 46.91 38.3664 47.4133M39.9831 40.18C39.9831 40.68 39.5998 41.0967 39.1331 41.0967C38.6498 41.0967 38.2664 40.68 38.2664 40.1833C38.2664 39.6867 38.6164 39.2967 39.0664 39.2667C39.3664 39.0667 39.7331 38.6333 39.9498 37.8C39.8626 37.5882 39.8509 37.3528 39.9164 37.1333C39.8281 36.5624 39.5312 36.0446 39.0831 35.68C38.8561 35.6631 38.644 35.5609 38.4894 35.3939C38.3347 35.2269 38.2491 35.0076 38.2498 34.78C38.2498 34.28 38.6498 33.8633 39.1331 33.8633C39.5998 33.8633 39.9831 34.2633 39.9831 34.78C39.9809 34.9311 39.9531 35.07 39.8998 35.1967C40.0664 35.6133 40.3998 36.3467 40.7164 36.5133C41.2164 36.5133 41.5998 36.9133 41.5998 37.4133C41.5998 37.78 41.3998 38.08 41.0998 38.2467L41.1498 38.2633C40.8394 38.4681 40.5753 38.7355 40.3743 39.0483C40.1734 39.3612 40.0402 39.7126 39.9831 40.08V40.18ZM40.8498 43.48C41.3331 43.48 41.7164 43.08 41.7164 42.58C41.7164 42.08 41.3331 41.6633 40.8498 41.6633C40.3831 41.6633 39.9831 42.0633 39.9831 42.58C39.9853 42.7156 40.0131 42.8433 40.0664 42.9633L39.3498 44.0633H39.2331C38.7498 44.0633 38.3664 44.4633 38.3664 44.9633C38.3664 45.4633 38.7498 45.88 39.2331 45.88C39.6998 45.88 40.0998 45.48 40.0998 44.9633C40.0975 44.7944 40.0531 44.6333 39.9664 44.48L40.6331 43.4667L40.8498 43.48ZM41.5998 47.4133C41.5998 47.9133 41.2164 48.33 40.7331 48.33C40.2498 48.33 39.8664 47.93 39.8664 47.4167C39.8664 46.9167 40.2498 46.5 40.7331 46.5C41.2164 46.5 41.5998 46.9133 41.5998 47.4167M42.2998 50.3667C42.7831 50.3667 43.1664 49.9667 43.1664 49.45C43.1664 48.95 42.7831 48.5333 42.2998 48.5333C41.8331 48.5333 41.4498 48.95 41.4498 49.45C41.4498 49.95 41.8331 50.3667 42.2998 50.3667ZM43.3164 39.95C43.3164 40.45 42.9331 40.8667 42.4498 40.8667C41.9831 40.8667 41.5998 40.45 41.5998 39.95C41.5998 39.45 41.9831 39.0333 42.4664 39.0333C42.9331 39.0333 43.3164 39.45 43.3164 39.95ZM44.0331 43.5167C44.4998 43.5167 44.8998 43.1167 44.8998 42.6C44.8998 42.1 44.4998 41.6867 44.0331 41.6867C43.9162 41.6897 43.8011 41.7157 43.6942 41.7633C43.5874 41.8108 43.491 41.8789 43.4105 41.9638C43.33 42.0486 43.267 42.1484 43.2252 42.2576C43.1833 42.3668 43.1633 42.4831 43.1664 42.6C43.1664 42.7333 43.1998 42.8667 43.2331 42.9667L42.6164 43.9667H42.5831C42.0998 43.9667 41.7164 44.3667 41.7164 44.8667C41.7164 45.3667 42.0998 45.7833 42.5831 45.7833C43.0498 45.7833 43.4498 45.3833 43.4498 44.87C43.4475 44.6656 43.3864 44.4811 43.2664 44.3167L43.7998 43.4833C43.8664 43.5167 43.9498 43.5167 44.0331 43.5167ZM44.8998 47.35C44.8998 47.5167 44.8331 47.7 44.7331 47.85L45.0498 48.35H45.1331C45.6164 48.35 45.9998 48.75 45.9998 49.25C45.9998 49.75 45.6164 50.1667 45.1331 50.1667C44.6498 50.1667 44.2664 49.7667 44.2664 49.25C44.2664 49.07 44.3331 48.8833 44.4331 48.75L44.1164 48.25H44.0331C43.917 48.2483 43.8023 48.2236 43.6958 48.1773C43.5892 48.1311 43.4929 48.0642 43.4123 47.9805C43.3317 47.8968 43.2685 47.798 43.2263 47.6898C43.1841 47.5816 43.1638 47.4661 43.1664 47.35C43.1664 46.85 43.5498 46.4333 44.0331 46.4333C44.4998 46.4333 44.8998 46.8333 44.8998 47.35ZM45.7331 45.7833C46.2331 45.7833 46.5998 45.3833 46.5998 44.87C46.5998 44.37 46.2164 43.95 45.7498 43.95C45.2664 43.95 44.8831 44.3667 44.8831 44.87C44.8831 45.37 45.2664 45.7833 45.7498 45.7833H45.7331ZM47.7331 47.1833C47.7331 47.6833 47.3331 48.1033 46.8664 48.1033C46.3831 48.1033 45.9998 47.6833 45.9998 47.1833C45.9998 46.6833 46.3831 46.27 46.8664 46.27C47.3331 46.27 47.7164 46.67 47.7164 47.1833H47.7331ZM48.3331 40.9033C48.8164 40.9033 49.1998 40.4833 49.1998 39.9833C49.1998 39.4833 48.8164 39.0667 48.3331 39.0667C47.8498 39.0667 47.4664 39.4667 47.4664 39.9833C47.4664 40.4833 47.8498 40.9033 48.3331 40.9033ZM47.6664 42.8367C47.8174 42.6655 47.9004 42.4449 47.8998 42.2167C47.8998 41.7167 47.5164 41.3 47.0331 41.3C46.5664 41.3 46.1664 41.72 46.1664 42.2167C46.1664 42.7133 46.5331 43.1167 46.9998 43.1333L47.5498 44.0333C47.499 44.1492 47.4708 44.2736 47.4664 44.4C47.4664 44.9 47.8498 45.3167 48.3331 45.3167C48.8164 45.3167 49.1998 44.9167 49.1998 44.4033C49.1949 44.2263 49.1431 44.0538 49.0498 43.9033L49.4998 43.0167C49.9164 43.0167 50.2331 42.6833 50.2331 42.25C50.2331 41.8167 49.8998 41.4833 49.5164 41.4833C49.1164 41.4833 48.7831 41.8167 48.7831 42.25C48.7831 42.3833 48.8164 42.5167 48.8664 42.6167L48.4164 43.5C48.3106 43.4887 48.2038 43.4943 48.0998 43.5167L47.6831 42.8333L47.6664 42.8367ZM33.0831 40.47C33.1831 40.3367 33.2498 40.1367 33.2498 39.97C33.2498 39.45 32.8498 39.0367 32.3831 39.0367C31.8831 39.0367 31.5164 39.45 31.5164 39.95C31.5164 40.45 31.8998 40.8667 32.3831 40.8667H32.4498L33.3164 42.2C33.2636 42.321 33.2353 42.4513 33.2331 42.5833C33.2331 43.0833 33.6331 43.4833 34.0998 43.4833C34.5831 43.4833 34.9664 43.0833 34.9664 42.5833C34.9664 42.0833 34.5831 41.6667 34.0998 41.6667C34.0271 41.6643 33.9545 41.6699 33.8831 41.6833L33.0831 40.47ZM40.3331 50.2033L39.9164 49.8033C39.9575 49.6968 39.9801 49.5841 39.9831 49.47C39.9831 48.95 39.5998 48.5367 39.1331 48.5367C38.6498 48.5367 38.2664 48.95 38.2664 49.45C38.2664 49.95 38.6498 50.3667 39.1331 50.3667C39.2164 50.3667 39.2998 50.3667 39.3831 50.3333L39.7831 50.7167C39.7381 50.8336 39.7155 50.958 39.7164 51.0833C39.7164 51.5833 40.0998 52 40.5831 52C41.0498 52 41.4498 51.5867 41.4498 51.0833C41.4498 50.5833 41.0498 50.1667 40.5831 50.1667C40.4987 50.1672 40.4147 50.1817 40.3331 50.2033ZM38.6164 51.08C38.6164 51.58 38.2331 51.9967 37.7498 51.9967C37.2664 51.9967 36.8831 51.5833 36.8831 51.08C36.8831 50.58 37.2664 50.1633 37.7498 50.1633C38.2331 50.1633 38.6164 50.58 38.6164 51.08ZM32.3331 46.9333C32.3331 47.4333 31.9498 47.85 31.4664 47.85C30.9831 47.85 30.5998 47.4333 30.5998 46.9367C30.5998 46.44 30.9831 46.0167 31.4664 46.0167C31.9498 46.0167 32.3331 46.4333 32.3331 46.9333ZM44.6331 37.5667C44.6336 37.6742 44.6167 37.7812 44.5831 37.8833L45.3331 39.05H45.5331C46.0164 39.05 46.3998 39.45 46.3998 39.95C46.3998 40.45 46.0164 40.8667 45.5331 40.8667C45.0664 40.8667 44.6664 40.45 44.6664 39.95C44.6664 39.7989 44.6998 39.6656 44.7664 39.55L43.9831 38.35H43.8998C43.4998 38.35 43.1664 38.0167 43.1664 37.5667C43.1664 37.1533 43.4998 36.8 43.8998 36.8C44.2998 36.8 44.6331 37.1333 44.6331 37.5667ZM48.1331 37.7167C48.1331 38.2167 47.7331 38.6333 47.2664 38.6333C46.7831 38.6333 46.3998 38.2167 46.3998 37.7167C46.3998 37.2167 46.7831 36.8 47.2664 36.8C47.7331 36.8 48.1331 37.2 48.1331 37.7167ZM46.3998 35.05C46.3998 35.55 46.0164 35.9833 45.5331 35.9833C45.0664 35.9833 44.6664 35.5667 44.6664 35.0667C44.6664 34.5667 45.0664 34.15 45.5331 34.15C46.0164 34.15 46.3998 34.55 46.3998 35.0667V35.05ZM43.1331 30.5833C43.1331 31.0833 42.7498 31.5 42.2664 31.5C41.7998 31.5 41.4164 31.0833 41.4164 30.5833C41.4164 30.0833 41.7998 29.6667 42.2664 29.6667C42.7498 29.6667 43.1331 30.0833 43.1331 30.5833ZM45.2331 31.75C45.7164 31.75 46.0998 31.3333 46.0998 30.8333C46.0998 30.3333 45.7164 29.9167 45.2331 29.9167C44.7664 29.9167 44.3664 30.3333 44.3664 30.8333C44.3664 31.3333 44.7664 31.75 45.2331 31.75ZM41.7164 32.5833C41.7164 33.0833 41.3331 33.5 40.8498 33.5C40.3831 33.5 39.9831 33.0833 39.9831 32.5833C39.9831 32.0833 40.3831 31.6667 40.8498 31.6667C41.3331 31.6667 41.7164 32.0667 41.7164 32.5833ZM46.5998 33.8667C47.0998 33.8667 47.4664 33.45 47.4664 32.95C47.4664 32.45 47.0831 32.0333 46.5998 32.0333C46.1331 32.0333 45.7498 32.4333 45.7498 32.95C45.7498 33.45 46.1331 33.8667 46.5998 33.8667ZM44.1331 33.6667C44.2937 33.5905 44.4292 33.47 44.5237 33.3194C44.6182 33.1689 44.6677 32.9944 44.6664 32.8167C44.6664 32.3167 44.2831 31.9 43.8164 31.9C43.3331 31.9 42.9498 32.3 42.9498 32.8167C42.9498 32.9167 42.9498 33.0167 42.9831 33.1C42.8698 33.4853 42.6212 33.8167 42.2831 34.0333C42.081 34.0952 41.9048 34.2216 41.7813 34.3932C41.6579 34.5648 41.5941 34.7721 41.5998 34.9833C41.5998 35.5167 42.0164 35.9667 42.5164 35.9667C43.0164 35.9667 43.4498 35.5167 43.4498 34.9833C43.4498 34.8811 43.4331 34.7867 43.3998 34.7C43.4998 34.2833 43.8664 33.8833 44.1331 33.6667ZM49.1998 35.45C49.1965 35.6976 49.1014 35.9351 48.9331 36.1167L49.1998 36.7833C49.6831 36.8 50.0664 37.2167 50.0664 37.7167C50.0664 38.2167 49.6664 38.6333 49.1998 38.6333C48.7164 38.6333 48.3331 38.2167 48.3331 37.7167C48.3331 37.4833 48.4164 37.2833 48.5331 37.1167L48.2331 36.35C48.0182 36.3178 47.8222 36.209 47.6812 36.0435C47.5403 35.8781 47.464 35.6673 47.4664 35.45C47.4664 34.95 47.8498 34.5333 48.3331 34.5333C48.8164 34.5333 49.1998 34.9333 49.1998 35.45ZM39.8631 19C42.3131 19 44.3131 17 44.3131 14.5C44.3131 12 42.3131 10 39.8664 10C39.2784 10.0022 38.6967 10.1204 38.1545 10.348C37.6123 10.5755 37.1204 10.9078 36.707 11.3259C36.2935 11.744 35.9667 12.2396 35.7452 12.7843C35.5238 13.329 35.412 13.912 35.4164 14.5C35.4164 17 37.4164 19 39.8664 19M62.0831 32.3833C62.6677 32.4214 63.254 32.3436 63.8085 32.1544C64.3629 31.9653 64.8746 31.6686 65.3141 31.2812C65.7536 30.8939 66.1123 30.4236 66.3696 29.8973C66.6269 29.371 66.7778 28.7991 66.8136 28.2144C66.8493 27.6296 66.7693 27.0436 66.578 26.4899C66.3868 25.9362 66.0881 25.4256 65.699 24.9876C65.31 24.5496 64.8383 24.1927 64.3111 23.9375C63.7838 23.6822 63.2113 23.5335 62.6264 23.5C61.4511 23.4327 60.297 23.8338 59.4168 24.6156C58.5366 25.3973 58.0021 26.496 57.9302 27.671C57.8583 28.8461 58.255 30.0017 59.0333 30.8849C59.8117 31.7681 60.9083 32.3069 62.0831 32.3833ZM66.5331 51.6667C66.5331 52.7717 66.0941 53.8315 65.3127 54.6129C64.5313 55.3943 63.4715 55.8333 62.3664 55.8333C61.2614 55.8333 60.2015 55.3943 59.4201 54.6129C58.6387 53.8315 58.1998 52.7717 58.1998 51.6667C58.1998 50.5616 58.6387 49.5018 59.4201 48.7204C60.2015 47.939 61.2614 47.5 62.3664 47.5C63.4715 47.5 64.5313 47.939 65.3127 48.7204C66.0941 49.5018 66.5331 50.5616 66.5331 51.6667ZM17.6464 32.5C20.0964 32.5 22.0798 30.5 22.0798 28C22.0798 25.5 20.0798 23.5 17.6464 23.5C17.0584 23.5022 16.4767 23.6204 15.9345 23.848C15.3923 24.0755 14.9004 24.4078 14.487 24.8259C14.0735 25.244 13.7467 25.7396 13.5252 26.2843C13.3038 26.829 13.192 27.412 13.1964 28C13.1964 30.5 15.1964 32.5 17.6464 32.5ZM44.3131 65.5C44.3131 68 42.3131 70 39.8631 70C39.2751 69.9978 38.6933 69.8796 38.1512 69.652C37.609 69.4245 37.1171 69.0922 36.7036 68.6741C36.2902 68.256 35.9634 67.7604 35.7419 67.2157C35.5204 66.671 35.4087 66.088 35.4131 65.5C35.4131 63 37.4131 61 39.8631 61C42.3131 61 44.3131 63 44.3131 65.5ZM17.6464 56.5C20.0964 56.5 22.0798 54.5 22.0798 52C22.0798 49.5 20.0798 47.5 17.6298 47.5C16.7459 47.5041 15.8833 47.7714 15.1519 48.2677C14.4205 48.764 13.8535 49.4669 13.5231 50.2867C13.3009 50.8378 13.192 51.4089 13.1964 52C13.1964 54.5 15.1964 56.5 17.6298 56.5H17.6464ZM38.1964 26.6667V20H41.5298V26.6667H38.1964ZM50.7464 35.9667L58.1964 31.7667L56.5298 28.8667L49.0964 33.0667L50.7631 35.9667H50.7464ZM29.4131 46.4667L22.8631 50.2667L21.5298 47.7667L28.0631 43.9667L29.3964 46.4667H29.4131ZM38.1964 52.7667V59.4333H41.5298V52.7667H38.1964ZM56.4798 51.15L48.8131 47.65L50.1464 44.8167L57.8131 48.3333L56.4798 51.15ZM43.6131 18.15C44.2131 17.5 44.6464 16.7167 44.8798 15.85L58.9798 23.8167C58.2798 24.35 57.7131 25.05 57.3464 25.8667L43.6131 18.1333V18.15ZM62.0798 33.2667C62.5964 33.2667 63.0964 33.1833 63.5798 33.05V46.9833C62.6067 46.6919 61.5695 46.6919 60.5964 46.9833V33.05C61.0798 33.1833 61.5631 33.2667 62.0964 33.2667H62.0798ZM57.4631 54.2833L43.6298 61.9167C44.2298 62.5667 44.6798 63.35 44.8964 64.2167L59.2298 56.2667C58.4798 55.7667 57.8631 55.1 57.4631 54.2833ZM34.8298 64.2333C35.0464 63.35 35.4964 62.5667 36.0798 61.9167L22.3131 54.3C21.9265 55.11 21.3418 55.8094 20.6131 56.3333L34.8298 64.2333ZM17.6464 46.75C17.1298 46.75 16.6298 46.8333 16.1464 46.9667V33.0333C17.1198 33.33 18.1564 33.33 19.1298 33.0333V46.9667C18.6437 46.8186 18.1379 46.7456 17.6298 46.75H17.6464ZM22.3798 25.8667L36.1131 18.1167C35.5082 17.4723 35.0729 16.6876 34.8464 15.8333L20.7464 23.8C21.4464 24.3333 22.0131 25.0333 22.3798 25.8667Z" fill="white"/>
</svg>