<svg width="40" height="40" viewBox="0 0 40 40" fill="none" xmlns="http://www.w3.org/2000/svg">
<path d="M36.6667 9.99232C36.6667 9.07565 35.9234 8.33398 35.0084 8.33398H21.6584C21.2186 8.33398 20.7968 8.5087 20.4858 8.8197C20.1748 9.1307 20.0001 9.5525 20.0001 9.99232C20.0001 10.4321 20.1748 10.8539 20.4858 11.1649C20.7968 11.4759 21.2186 11.6507 21.6584 11.6507H35.0084C35.4482 11.6507 35.87 11.4759 36.181 11.1649C36.492 10.8539 36.6667 10.4321 36.6667 9.99232ZM36.6667 20.0007C36.6667 19.084 35.9234 18.3423 35.0084 18.3423H4.99175C4.55193 18.3423 4.13013 18.517 3.81913 18.828C3.50813 19.139 3.33342 19.5608 3.33342 20.0007C3.33342 20.4405 3.50813 20.8623 3.81913 21.1733C4.13013 21.4843 4.55193 21.659 4.99175 21.659H35.0084C35.4482 21.659 35.87 21.4843 36.181 21.1733C36.492 20.8623 36.6667 20.4405 36.6667 20.0007ZM35.0084 28.3507C35.4482 28.3507 35.87 28.5254 36.181 28.8364C36.492 29.1474 36.6667 29.5692 36.6667 30.009C36.6667 30.4488 36.492 30.8706 36.181 31.1816C35.87 31.4926 35.4482 31.6673 35.0084 31.6673H14.9917C14.5519 31.6673 14.1301 31.4926 13.8191 31.1816C13.5081 30.8706 13.3334 30.4488 13.3334 30.009C13.3334 29.5692 13.5081 29.1474 13.8191 28.8364C14.1301 28.5254 14.5519 28.3507 14.9917 28.3507H35.0084Z" fill="white"/>
</svg>