<svg width="80" height="80" viewBox="0 0 80 80" fill="none" xmlns="http://www.w3.org/2000/svg">
<g clip-path="url(#clip0_24_749)">
<path d="M40 80C62.0914 80 80 62.0914 80 40C80 17.9086 62.0914 0 40 0C17.9086 0 0 17.9086 0 40C0 62.0914 17.9086 80 40 80Z" fill="url(#paint0_linear_24_749)"/>
<path fill-rule="evenodd" clip-rule="evenodd" d="M18.1064 39.5778C29.7672 34.4974 37.5429 31.1481 41.4335 29.5298C52.5419 24.9095 54.8502 24.1069 56.3546 24.0804C56.6855 24.0745 57.4254 24.1565 57.9046 24.5454C58.3093 24.8738 58.4206 25.3173 58.4739 25.6287C58.5272 25.94 58.5935 26.6492 58.5408 27.2033C57.9388 33.5283 55.3341 48.8772 54.009 55.9613C53.4483 58.9588 52.3442 59.9639 51.2754 60.0622C48.9525 60.276 47.1886 58.5271 44.9388 57.0523C41.4183 54.7446 39.4294 53.308 36.0121 51.0561C32.0629 48.4536 34.623 47.0232 36.8737 44.6856C37.4627 44.0738 47.6973 34.7646 47.8954 33.9201C47.9202 33.8145 47.9432 33.4208 47.7093 33.2129C47.4754 33.005 47.1302 33.0761 46.8811 33.1327C46.528 33.2128 40.9039 36.9301 30.0089 44.2846C28.4125 45.3808 26.9666 45.9149 25.671 45.8869C24.2428 45.856 21.4955 45.0793 19.4532 44.4155C16.9482 43.6012 14.9573 43.1707 15.1306 41.7878C15.2209 41.0675 16.2129 40.3308 18.1064 39.5778Z" fill="white"/>
</g>
<defs>
<linearGradient id="paint0_linear_24_749" x1="40" y1="0" x2="40" y2="79.4067" gradientUnits="userSpaceOnUse">
<stop stop-color="#2AABEE"/>
<stop offset="1" stop-color="#229ED9"/>
</linearGradient>
<clipPath id="clip0_24_749">
<rect width="80" height="80" fill="white"/>
</clipPath>
</defs>
</svg>