<svg width="80" height="80" viewBox="0 0 80 80" fill="none" xmlns="http://www.w3.org/2000/svg">
<path d="M54.2603 27.0665C52.3752 22.4951 49.1259 18.6164 44.9556 15.9595C40.7852 13.3025 35.8968 11.9966 30.957 12.2198C17.567 12.2198 6.66699 21.5565 6.66699 33.0465C6.7215 36.1835 7.52831 39.2617 9.01962 42.0221C10.5109 44.7825 12.6431 47.1446 15.237 48.9098L12.357 54.6665C12.2399 54.9366 12.2095 55.2364 12.2699 55.5245C12.3303 55.8127 12.4786 56.075 12.6943 56.2753C12.91 56.4757 13.1826 56.6042 13.4744 56.6432C13.7662 56.6823 14.0629 56.6298 14.3237 56.4932L21.6203 52.2965C23.6159 52.9897 25.6835 53.4549 27.7837 53.6832C30.627 53.6832 28.5137 50.0365 28.8403 48.3232C28.8403 37.5998 39.4537 28.8832 52.4737 28.8832C52.7248 28.9522 52.9897 28.9528 53.2412 28.885C53.4926 28.8171 53.7213 28.6832 53.9035 28.4972C54.0858 28.3112 54.215 28.0799 54.2777 27.8271C54.3405 27.5744 54.3344 27.3095 54.2603 27.0598M21.837 28.8065C20.7346 28.8065 19.6773 28.3686 18.8978 27.589C18.1183 26.8095 17.6803 25.7522 17.6803 24.6498C17.6914 23.5465 18.1403 22.4928 18.9282 21.7205C19.7162 20.9481 20.7787 20.5204 21.882 20.5315C22.9853 20.5425 24.039 20.9914 24.8114 21.7794C25.5837 22.5674 26.0114 23.6299 26.0003 24.7332C25.9802 25.824 25.532 26.8631 24.7525 27.6264C23.973 28.3897 22.9247 28.816 21.8337 28.8132M38.5003 28.8132C37.4028 28.7986 36.3555 28.3506 35.5871 27.5667C34.8187 26.7829 34.3915 25.727 34.3988 24.6294C34.406 23.5317 34.8471 22.4815 35.6259 21.7079C36.4046 20.9344 37.4577 20.5002 38.5553 20.5002C39.653 20.5002 40.7061 20.9344 41.4848 21.7079C42.2635 22.4815 42.7046 23.5317 42.7119 24.6294C42.7192 25.727 42.292 26.7829 41.5236 27.5667C40.7551 28.3506 39.7079 28.7986 38.6103 28.8132H38.5003Z" fill="#085764"/>
<path d="M73.3337 48.3268C73.3337 39.1368 64.0004 31.6602 52.5104 31.6602C41.0204 31.6602 31.6504 38.9535 31.6504 48.3268C31.6504 57.7002 41.0204 64.9935 52.5104 64.9935C54.6626 65.0026 56.807 64.7337 58.8904 64.1935L65.7837 67.6568C66.0383 67.7864 66.3267 67.8341 66.6095 67.7936C66.8922 67.753 67.1555 67.6261 67.3635 67.4303C67.5714 67.2344 67.7137 66.9791 67.7711 66.6992C67.8284 66.4194 67.7979 66.1287 67.6837 65.8668L65.8204 61.1635C68.0383 59.8139 69.8861 57.9343 71.1975 55.6936C72.509 53.453 73.2431 50.9215 73.3337 48.3268ZM45.5437 45.5535C44.8086 45.5535 44.1036 45.2615 43.5839 44.7417C43.0641 44.2219 42.7721 43.5169 42.7721 42.7818C42.7721 42.0467 43.0641 41.3417 43.5839 40.822C44.1036 40.3022 44.8086 40.0102 45.5437 40.0102C46.2821 40.011 46.9905 40.3024 47.5157 40.8213C48.0409 41.3403 48.3408 42.0452 48.3504 42.7835C48.3425 43.522 48.0431 44.2276 47.5174 44.7464C46.9917 45.2652 46.2823 45.5553 45.5437 45.5535ZM59.4371 45.5535C59.065 45.5664 58.6941 45.5043 58.3466 45.3708C57.9991 45.2373 57.6819 45.0352 57.4142 44.7766C57.1464 44.5179 56.9334 44.208 56.788 43.8653C56.6426 43.5226 56.5676 43.1541 56.5676 42.7818C56.5676 42.4095 56.6426 42.041 56.788 41.6983C56.9334 41.3556 57.1464 41.0457 57.4142 40.7871C57.6819 40.5284 57.9991 40.3263 58.3466 40.1929C58.6941 40.0594 59.065 39.9973 59.4371 40.0102C60.1555 40.0351 60.8362 40.338 61.3357 40.8551C61.8351 41.3721 62.1143 42.0629 62.1143 42.7818C62.1143 43.5007 61.8351 44.1915 61.3357 44.7086C60.8362 45.2256 60.1555 45.5286 59.4371 45.5535Z" fill="#085764"/>
</svg>